<mxfile host="Electron" agent="Mozilla/5.0 (Windows NT 10.0; Win64; x64) AppleWebKit/537.36 (KHTML, like Gecko) draw.io/25.0.2 Chrome/128.0.6613.186 Electron/32.2.5 Safari/537.36" version="25.0.2">
  <diagram name="Page-1" id="UHLEf8QtugPVYhKvxAQx">
    <mxGraphModel dx="2444" dy="932" grid="1" gridSize="10" guides="1" tooltips="1" connect="1" arrows="1" fold="1" page="1" pageScale="1" pageWidth="850" pageHeight="1100" math="0" shadow="0">
      <root>
        <mxCell id="0" />
        <mxCell id="1" parent="0" />
        <mxCell id="uBKLK0o5v8SdxCqG3Ahi-49" value="true" style="text;strokeColor=none;align=center;fillColor=none;html=1;verticalAlign=middle;whiteSpace=wrap;rounded=0;fontSize=20;" parent="1" vertex="1">
          <mxGeometry x="-520" y="250" width="60" height="30" as="geometry" />
        </mxCell>
        <mxCell id="8B6X0PRga6cAZqPsXso9-19" value="" style="edgeStyle=orthogonalEdgeStyle;rounded=0;orthogonalLoop=1;jettySize=auto;html=1;fontSize=20;" edge="1" parent="1" source="8B6X0PRga6cAZqPsXso9-1" target="8B6X0PRga6cAZqPsXso9-2">
          <mxGeometry relative="1" as="geometry" />
        </mxCell>
        <mxCell id="8B6X0PRga6cAZqPsXso9-1" value="&lt;span style=&quot;color: rgb(255, 255, 255);&quot;&gt;Start&lt;/span&gt;" style="strokeWidth=2;html=1;shape=mxgraph.flowchart.start_1;whiteSpace=wrap;fontSize=20;" vertex="1" parent="1">
          <mxGeometry x="-650" y="20" width="100" height="60" as="geometry" />
        </mxCell>
        <mxCell id="8B6X0PRga6cAZqPsXso9-20" value="" style="edgeStyle=orthogonalEdgeStyle;rounded=0;orthogonalLoop=1;jettySize=auto;html=1;fontSize=20;" edge="1" parent="1" source="8B6X0PRga6cAZqPsXso9-2" target="8B6X0PRga6cAZqPsXso9-3">
          <mxGeometry relative="1" as="geometry" />
        </mxCell>
        <mxCell id="8B6X0PRga6cAZqPsXso9-2" value="&lt;span style=&quot;color: rgb(255, 255, 255);&quot;&gt;nhập n&lt;/span&gt;" style="shape=parallelogram;html=1;strokeWidth=2;perimeter=parallelogramPerimeter;whiteSpace=wrap;rounded=1;arcSize=12;size=0.23;fontSize=20;" vertex="1" parent="1">
          <mxGeometry x="-650" y="120" width="100" height="60" as="geometry" />
        </mxCell>
        <mxCell id="8B6X0PRga6cAZqPsXso9-21" value="" style="edgeStyle=orthogonalEdgeStyle;rounded=0;orthogonalLoop=1;jettySize=auto;html=1;fontSize=20;" edge="1" parent="1" source="8B6X0PRga6cAZqPsXso9-3" target="8B6X0PRga6cAZqPsXso9-4">
          <mxGeometry relative="1" as="geometry" />
        </mxCell>
        <mxCell id="8B6X0PRga6cAZqPsXso9-29" value="" style="edgeStyle=orthogonalEdgeStyle;rounded=0;orthogonalLoop=1;jettySize=auto;html=1;fontSize=20;" edge="1" parent="1" source="8B6X0PRga6cAZqPsXso9-3" target="8B6X0PRga6cAZqPsXso9-8">
          <mxGeometry relative="1" as="geometry" />
        </mxCell>
        <mxCell id="8B6X0PRga6cAZqPsXso9-3" value="&lt;span style=&quot;color: rgb(255, 255, 255);&quot;&gt;n&amp;lt;4?&lt;/span&gt;" style="strokeWidth=2;html=1;shape=mxgraph.flowchart.decision;whiteSpace=wrap;fontSize=20;" vertex="1" parent="1">
          <mxGeometry x="-680" y="240" width="160" height="80" as="geometry" />
        </mxCell>
        <mxCell id="8B6X0PRga6cAZqPsXso9-22" value="" style="edgeStyle=orthogonalEdgeStyle;rounded=0;orthogonalLoop=1;jettySize=auto;html=1;fontSize=20;" edge="1" parent="1" source="8B6X0PRga6cAZqPsXso9-4" target="8B6X0PRga6cAZqPsXso9-7">
          <mxGeometry relative="1" as="geometry" />
        </mxCell>
        <mxCell id="8B6X0PRga6cAZqPsXso9-30" value="" style="edgeStyle=orthogonalEdgeStyle;rounded=0;orthogonalLoop=1;jettySize=auto;html=1;fontSize=20;" edge="1" parent="1" source="8B6X0PRga6cAZqPsXso9-4" target="8B6X0PRga6cAZqPsXso9-12">
          <mxGeometry relative="1" as="geometry" />
        </mxCell>
        <mxCell id="8B6X0PRga6cAZqPsXso9-4" value="&lt;span style=&quot;color: rgb(255, 255, 255);&quot;&gt;4&amp;lt;=n&amp;lt;=6&lt;/span&gt;" style="strokeWidth=2;html=1;shape=mxgraph.flowchart.decision;whiteSpace=wrap;fontSize=20;" vertex="1" parent="1">
          <mxGeometry x="-680" y="360" width="160" height="80" as="geometry" />
        </mxCell>
        <mxCell id="8B6X0PRga6cAZqPsXso9-32" value="" style="edgeStyle=orthogonalEdgeStyle;rounded=0;orthogonalLoop=1;jettySize=auto;html=1;fontSize=20;" edge="1" parent="1" source="8B6X0PRga6cAZqPsXso9-6" target="8B6X0PRga6cAZqPsXso9-10">
          <mxGeometry relative="1" as="geometry" />
        </mxCell>
        <mxCell id="8B6X0PRga6cAZqPsXso9-6" value="&lt;span style=&quot;color: rgb(255, 255, 255);&quot;&gt;8&amp;lt;n&amp;lt;=9&lt;/span&gt;" style="strokeWidth=2;html=1;shape=mxgraph.flowchart.decision;whiteSpace=wrap;fontSize=20;" vertex="1" parent="1">
          <mxGeometry x="-680" y="602.5" width="160" height="80" as="geometry" />
        </mxCell>
        <mxCell id="8B6X0PRga6cAZqPsXso9-25" value="" style="edgeStyle=orthogonalEdgeStyle;rounded=0;orthogonalLoop=1;jettySize=auto;html=1;fontSize=20;" edge="1" parent="1" source="8B6X0PRga6cAZqPsXso9-7" target="8B6X0PRga6cAZqPsXso9-6">
          <mxGeometry relative="1" as="geometry" />
        </mxCell>
        <mxCell id="8B6X0PRga6cAZqPsXso9-31" value="" style="edgeStyle=orthogonalEdgeStyle;rounded=0;orthogonalLoop=1;jettySize=auto;html=1;fontSize=20;" edge="1" parent="1" source="8B6X0PRga6cAZqPsXso9-7" target="8B6X0PRga6cAZqPsXso9-11">
          <mxGeometry relative="1" as="geometry" />
        </mxCell>
        <mxCell id="8B6X0PRga6cAZqPsXso9-7" value="&lt;span style=&quot;color: rgb(255, 255, 255);&quot;&gt;6&amp;lt;n&amp;lt;=8&lt;/span&gt;" style="strokeWidth=2;html=1;shape=mxgraph.flowchart.decision;whiteSpace=wrap;fontSize=20;" vertex="1" parent="1">
          <mxGeometry x="-680" y="480" width="160" height="80" as="geometry" />
        </mxCell>
        <mxCell id="8B6X0PRga6cAZqPsXso9-8" value="&lt;span style=&quot;color: rgb(255, 255, 255);&quot;&gt;in &quot;không đạt&quot;&lt;/span&gt;" style="rounded=1;whiteSpace=wrap;html=1;absoluteArcSize=1;arcSize=14;strokeWidth=2;fontSize=20;" vertex="1" parent="1">
          <mxGeometry x="-440" y="240" width="160" height="80" as="geometry" />
        </mxCell>
        <mxCell id="8B6X0PRga6cAZqPsXso9-10" value="&lt;span style=&quot;color: rgb(255, 255, 255);&quot;&gt;in&quot; Giỏi&quot;&lt;/span&gt;" style="rounded=1;whiteSpace=wrap;html=1;absoluteArcSize=1;arcSize=14;strokeWidth=2;fontSize=20;" vertex="1" parent="1">
          <mxGeometry x="-440" y="602.5" width="160" height="80" as="geometry" />
        </mxCell>
        <mxCell id="8B6X0PRga6cAZqPsXso9-41" value="" style="edgeStyle=orthogonalEdgeStyle;rounded=0;orthogonalLoop=1;jettySize=auto;html=1;fontSize=20;" edge="1" parent="1" source="8B6X0PRga6cAZqPsXso9-11" target="8B6X0PRga6cAZqPsXso9-13">
          <mxGeometry relative="1" as="geometry" />
        </mxCell>
        <mxCell id="8B6X0PRga6cAZqPsXso9-11" value="&lt;span style=&quot;color: rgb(255, 255, 255);&quot;&gt;in&quot; Khá&quot;&lt;/span&gt;" style="rounded=1;whiteSpace=wrap;html=1;absoluteArcSize=1;arcSize=14;strokeWidth=2;fontSize=20;" vertex="1" parent="1">
          <mxGeometry x="-440" y="480" width="160" height="80" as="geometry" />
        </mxCell>
        <mxCell id="8B6X0PRga6cAZqPsXso9-42" value="" style="edgeStyle=orthogonalEdgeStyle;rounded=0;orthogonalLoop=1;jettySize=auto;html=1;fontSize=20;" edge="1" parent="1" source="8B6X0PRga6cAZqPsXso9-12" target="8B6X0PRga6cAZqPsXso9-13">
          <mxGeometry relative="1" as="geometry" />
        </mxCell>
        <mxCell id="8B6X0PRga6cAZqPsXso9-12" value="&lt;span style=&quot;color: rgb(255, 255, 255);&quot;&gt;in&quot; Trung bình&quot;&lt;/span&gt;" style="rounded=1;whiteSpace=wrap;html=1;absoluteArcSize=1;arcSize=14;strokeWidth=2;fontSize=20;" vertex="1" parent="1">
          <mxGeometry x="-440" y="360" width="160" height="80" as="geometry" />
        </mxCell>
        <mxCell id="8B6X0PRga6cAZqPsXso9-13" value="&lt;span style=&quot;color: rgb(255, 255, 255);&quot;&gt;End&lt;/span&gt;" style="strokeWidth=2;html=1;shape=mxgraph.flowchart.start_1;whiteSpace=wrap;fontSize=20;" vertex="1" parent="1">
          <mxGeometry x="-170" y="420" width="130" height="85" as="geometry" />
        </mxCell>
        <mxCell id="8B6X0PRga6cAZqPsXso9-14" value="&lt;span style=&quot;color: rgb(255, 255, 255);&quot;&gt;In &#39; xuất sắc&quot;&lt;/span&gt;" style="rounded=1;whiteSpace=wrap;html=1;absoluteArcSize=1;arcSize=14;strokeWidth=2;fontSize=20;" vertex="1" parent="1">
          <mxGeometry x="-440" y="730" width="160" height="80" as="geometry" />
        </mxCell>
        <mxCell id="8B6X0PRga6cAZqPsXso9-15" value="false" style="text;strokeColor=none;align=center;fillColor=none;html=1;verticalAlign=middle;whiteSpace=wrap;rounded=0;fontSize=20;" vertex="1" parent="1">
          <mxGeometry x="-600" y="325" width="60" height="30" as="geometry" />
        </mxCell>
        <mxCell id="8B6X0PRga6cAZqPsXso9-16" value="false" style="text;strokeColor=none;align=center;fillColor=none;html=1;verticalAlign=middle;whiteSpace=wrap;rounded=0;fontSize=20;" vertex="1" parent="1">
          <mxGeometry x="-600" y="570" width="60" height="30" as="geometry" />
        </mxCell>
        <mxCell id="8B6X0PRga6cAZqPsXso9-17" value="false" style="text;strokeColor=none;align=center;fillColor=none;html=1;verticalAlign=middle;whiteSpace=wrap;rounded=0;fontSize=20;" vertex="1" parent="1">
          <mxGeometry x="-600" y="440" width="60" height="30" as="geometry" />
        </mxCell>
        <mxCell id="8B6X0PRga6cAZqPsXso9-27" style="edgeStyle=orthogonalEdgeStyle;rounded=0;orthogonalLoop=1;jettySize=auto;html=1;entryX=-0.019;entryY=0.366;entryDx=0;entryDy=0;entryPerimeter=0;fontSize=20;" edge="1" parent="1" source="8B6X0PRga6cAZqPsXso9-6" target="8B6X0PRga6cAZqPsXso9-14">
          <mxGeometry relative="1" as="geometry">
            <Array as="points">
              <mxPoint x="-600" y="759" />
            </Array>
          </mxGeometry>
        </mxCell>
        <mxCell id="8B6X0PRga6cAZqPsXso9-28" value="false" style="text;strokeColor=none;align=center;fillColor=none;html=1;verticalAlign=middle;whiteSpace=wrap;rounded=0;fontSize=20;" vertex="1" parent="1">
          <mxGeometry x="-600" y="720" width="60" height="30" as="geometry" />
        </mxCell>
        <mxCell id="8B6X0PRga6cAZqPsXso9-33" value="true" style="text;strokeColor=none;align=center;fillColor=none;html=1;verticalAlign=middle;whiteSpace=wrap;rounded=0;fontSize=20;" vertex="1" parent="1">
          <mxGeometry x="-520" y="610" width="60" height="30" as="geometry" />
        </mxCell>
        <mxCell id="8B6X0PRga6cAZqPsXso9-34" value="true" style="text;strokeColor=none;align=center;fillColor=none;html=1;verticalAlign=middle;whiteSpace=wrap;rounded=0;fontSize=20;" vertex="1" parent="1">
          <mxGeometry x="-520" y="490" width="60" height="30" as="geometry" />
        </mxCell>
        <mxCell id="8B6X0PRga6cAZqPsXso9-35" value="true" style="text;strokeColor=none;align=center;fillColor=none;html=1;verticalAlign=middle;whiteSpace=wrap;rounded=0;fontSize=20;" vertex="1" parent="1">
          <mxGeometry x="-520" y="370" width="60" height="30" as="geometry" />
        </mxCell>
        <mxCell id="8B6X0PRga6cAZqPsXso9-36" style="edgeStyle=orthogonalEdgeStyle;rounded=0;orthogonalLoop=1;jettySize=auto;html=1;entryX=0.5;entryY=0;entryDx=0;entryDy=0;entryPerimeter=0;fontSize=20;" edge="1" parent="1" source="8B6X0PRga6cAZqPsXso9-8" target="8B6X0PRga6cAZqPsXso9-13">
          <mxGeometry relative="1" as="geometry" />
        </mxCell>
        <mxCell id="8B6X0PRga6cAZqPsXso9-40" style="edgeStyle=orthogonalEdgeStyle;rounded=0;orthogonalLoop=1;jettySize=auto;html=1;entryX=0.685;entryY=1.029;entryDx=0;entryDy=0;entryPerimeter=0;fontSize=20;" edge="1" parent="1">
          <mxGeometry relative="1" as="geometry">
            <mxPoint x="-280" y="768" as="sourcePoint" />
            <mxPoint x="-90.95000000000005" y="505.00499999999994" as="targetPoint" />
          </mxGeometry>
        </mxCell>
        <mxCell id="8B6X0PRga6cAZqPsXso9-44" style="edgeStyle=orthogonalEdgeStyle;rounded=0;orthogonalLoop=1;jettySize=auto;html=1;entryX=0.5;entryY=1;entryDx=0;entryDy=0;entryPerimeter=0;fontSize=20;" edge="1" parent="1" source="8B6X0PRga6cAZqPsXso9-10" target="8B6X0PRga6cAZqPsXso9-13">
          <mxGeometry relative="1" as="geometry" />
        </mxCell>
      </root>
    </mxGraphModel>
  </diagram>
</mxfile>
